<svg width="174" height="179" viewBox="0 0 174 179" fill="none" xmlns="http://www.w3.org/2000/svg">
<g clip-path="url(#clip0_1_334)">
<path d="M77.3516 0.427056C61.0078 2.79619 46.1712 9.005 33.7149 18.8901C28.796 22.7298 19.1166 32.8598 16.2603 37.1896C15.2289 38.7419 13.9594 40.2941 13.4835 40.6208C13.0868 40.9477 12.6901 41.5195 12.6107 41.8462C12.6107 42.1731 10.7066 46.3395 8.48505 51.0778C-9.60432 89.3926 1.97923 135.959 36.0951 162.265C42.2836 167.002 56.8028 174.029 64.34 175.989C85.9996 181.625 106.072 179.339 126.145 169.209C139.872 162.182 150.106 152.87 159.23 138.982C169.782 123.133 175.653 99.3593 173.591 81.6316C169.702 49.3622 142.886 24.0368 109.325 20.8507C71.5598 17.3378 42.0456 41.5195 38.8721 78.4455C37.7612 91.5983 42.2043 104.915 50.6143 113.493C56.3267 119.456 61.4837 122.398 70.0524 124.684C88.2211 129.423 107.025 122.806 115.038 108.754C124.4 92.3335 117.735 70.5211 101.312 64.0672C86.2376 58.1852 70.3698 66.4364 65.8474 82.5302C61.4044 98.0522 73.226 114.309 89.3318 114.881C92.3468 115.045 93.0609 115.29 92.0294 115.862C89.4112 117.332 78.7004 116.107 73.94 113.738C68.545 110.96 62.8326 104.751 60.0556 98.6241C58.1515 94.5393 57.9135 92.9871 57.9135 85.798C57.9928 75.5862 59.8176 70.1944 65.6094 63.7405C72.6706 55.7344 81.6359 51.813 92.8228 51.813C114.086 51.813 130.509 69.1323 130.509 91.5166C130.509 116.76 109.722 135.632 83.3814 134.243C76.3996 133.916 76.3202 133.916 80.1285 134.897C89.7286 137.266 101.867 135.713 112.102 130.648C120.512 126.481 129.875 116.924 134 108.264C140.744 93.9675 140.903 79.0174 134.318 65.0475C131.303 58.6754 121.147 47.7283 115.117 44.2971C111.468 42.1731 102.106 38.5784 98.3766 37.7616C97.5038 37.5165 98.6146 37.3531 100.757 37.2714C107.025 37.1896 115.276 39.3138 122.575 42.9899C132.016 47.8099 140.823 56.8781 145.505 66.5998C154.072 84.5726 152.882 105.731 142.331 124.44C138.523 130.975 127.336 142.412 120.591 146.497C108.849 153.605 93.6955 156.791 80.3665 154.911C55.8506 151.562 35.9365 136.939 25.3844 114.554C17.0537 96.6634 15.7842 77.8736 21.576 58.8387C29.5099 32.9416 49.7415 12.9263 74.8128 5.9823C82.4294 3.93992 100.598 3.04128 108.691 4.43008C111.785 4.92027 115.355 5.57382 116.624 5.7372C120.988 6.47246 110.516 2.87789 104.565 1.65248C97.1864 0.100262 84.0161 -0.471586 77.3516 0.427056Z" fill="#FF00B8"/>
</g>
<defs>
<clipPath id="clip0_1_334">
<rect width="174" height="179" fill="white"/>
</clipPath>
</defs>
</svg>
